<?xml version="1.0" encoding="utf-8"?>
<svg version="1.1" xmlns="http://www.w3.org/2000/svg" xmlns:xlink="http://www.w3.org/1999/xlink" x="0px" y="0px" viewBox="0 0 256 256" enable-background="new 0 0 256 256" xml:space="preserve">
<g><g><path fill="#ffffff" d="M136.6,81.1L84,107.9l-15.3,7.8l1.9,19h86.8l-3.3,33.5l-26.1,6.7l-23.4-6.7l-2.7-20.1h-30l3.9,40.2l52.2,13.4l52.2-13.4l7.8-80.5h-47l49.5-25.4l2.7-28.2H62.8l2.6,26.8L136.6,81.1L136.6,81.1z"/><path fill="#ffffff" d="M23.9,10l18.9,212.4l85,23.6l85.2-23.6l19-212.4H23.9L23.9,10z M197.1,204.7l-69.2,19.2l-69-19.2L43.4,32.1h169.1L197.1,204.7z"/></g></g>
</svg>